<svg width="20" height="20" viewBox="0 0 20 20" fill="none" xmlns="http://www.w3.org/2000/svg">
<path d="M4.82841 10.4853L10.4853 4.82845C11.6568 3.65688 13.5563 3.65688 14.7279 4.82845C15.8995 6.00002 15.8995 7.89952 14.7279 9.07109L8.01039 15.7886C7.4246 16.3744 6.47485 16.3744 5.88907 15.7886C5.30328 15.2028 5.30328 14.2531 5.88907 13.6673L11.8995 7.65687C12.0947 7.46161 12.0947 7.14503 11.8995 6.94977C11.7042 6.75451 11.3876 6.75451 11.1924 6.94977L5.18196 12.9602C4.20565 13.9365 4.20565 15.5194 5.18196 16.4957C6.15827 17.472 7.74118 17.472 8.71749 16.4957L15.435 9.77819C16.9971 8.2161 16.9971 5.68344 15.435 4.12134C13.8729 2.55924 11.3403 2.55924 9.77815 4.12134L4.1213 9.77819C3.92604 9.97346 3.92604 10.29 4.1213 10.4853C4.31656 10.6806 4.63315 10.6806 4.82841 10.4853Z" fill="#605E5C"/>
</svg>
